Coordinates
version=1
nRows=32
nColumns=12
inDegrees=yes

Units are S.I. units (second, meters, Newtons, ...)
Angles are in degrees

endheader
time	SC_y	SC_z	SC_x	AC_y	AC_z	AC_x	GH_y	GH_z	GH_yy	EL_x	PS_y
       0.0              -51.45          24.56          56.96          31.48         -2.139         -13.75          2.672         -12.78         -179.0          40.82          130.1
   0.04038              -51.45          24.56          56.95          31.48         -2.141         -13.75          2.677         -12.77         -178.9          40.82          130.1
   0.08076              -51.44          24.56          56.95          31.49         -2.143         -13.75          2.683         -12.76         -178.9          40.82          130.1
    0.1211              -51.44          24.56          56.95          31.49         -2.145         -13.75          2.688         -12.74         -178.9          40.82          130.1
    0.1615              -51.44          24.56          56.95           31.5         -2.147         -13.75          2.694         -12.73         -178.8          40.82          130.0
    0.2019              -51.44          24.56          56.95          31.51         -2.149         -13.75          2.701         -12.72         -178.8          40.82          130.0
    0.2423              -51.43          24.56          56.95          31.51         -2.152         -13.75          2.708          -12.7         -178.8          40.83          130.0
    0.2827              -51.43          24.56          56.95          31.52         -2.154         -13.74          2.715         -12.69         -178.7          40.83          130.0
     0.323              -51.43          24.56          56.95          31.53         -2.157         -13.74          2.723         -12.67         -178.7          40.83          130.0
    0.3634              -51.42          24.55          56.95          31.54          -2.16         -13.74          2.731         -12.66         -178.7          40.83          129.9
    0.4038              -51.42          24.55          56.95          31.55         -2.164         -13.74           2.74         -12.64         -178.6          40.83          129.9
    0.4442              -51.42          24.55          56.95          31.56         -2.167         -13.74           2.75         -12.62         -178.6          40.83          129.9
    0.4846              -51.41          24.55          56.95          31.57         -2.171         -13.74           2.76          -12.6         -178.5          40.83          129.9
     0.525              -51.41          24.55          56.95          31.58         -2.175         -13.74          2.772         -12.57         -178.4          40.84          129.8
    0.5653               -51.4          24.54          56.95          31.59         -2.179         -13.74          2.784         -12.55         -178.4          40.84          129.8
    0.6057               -51.4          24.54          56.95          31.61         -2.184         -13.74          2.797         -12.52         -178.3          40.84          129.8
    0.6461              -51.39          24.54          56.95          31.62         -2.189         -13.74          2.812         -12.49         -178.2          40.84          129.7
    0.6865              -51.39          24.54          56.94          31.64         -2.195         -13.74          2.828         -12.46         -178.2          40.84          129.7
    0.7269              -51.38          24.53          56.94          31.66         -2.201         -13.74          2.845         -12.42         -178.1          40.85          129.7
    0.7672              -51.37          24.53          56.94          31.68         -2.208         -13.74          2.864         -12.38         -178.0          40.85          129.6
    0.8076              -51.36          24.52          56.94           31.7         -2.215         -13.74          2.884         -12.34         -177.9          40.85          129.6
     0.848              -51.35          24.52          56.94          31.72         -2.224         -13.74          2.907         -12.29         -177.8          40.86          129.5
    0.8884              -51.34          24.52          56.94          31.75         -2.233         -13.73          2.932         -12.24         -177.6          40.86          129.4
    0.9288              -51.33          24.51          56.94          31.77         -2.243         -13.73           2.96         -12.18         -177.5          40.86          129.4
    0.9691              -51.32           24.5          56.93          31.81         -2.254         -13.73          2.991         -12.12         -177.3          40.87          129.3
      1.01              -51.31           24.5          56.93          31.84         -2.266         -13.73          3.025         -12.05         -177.1          40.87          129.2
      1.05              -51.29          24.49          56.93          31.88          -2.28         -13.73          3.064         -11.97         -176.9          40.88          129.1
      1.09              -51.27          24.48          56.93          31.93         -2.296         -13.73          3.108         -11.88         -176.7          40.89          129.0
     1.131              -51.26          24.47          56.92          31.98         -2.314         -13.72          3.157         -11.78         -176.5          40.89          128.9
     1.171              -51.23          24.46          56.92          32.04         -2.334         -13.72          3.213         -11.66         -176.2           40.9          128.7
     1.211              -51.21          24.45          56.91           32.1         -2.357         -13.72          3.276         -11.53         -175.8          40.91          128.6
     1.252              -51.18          24.44          56.91          32.18         -2.383         -13.71           3.35         -11.38         -175.5          40.92          128.4
